<?xml version="1.0" standalone="no"?>
<!DOCTYPE svg PUBLIC "-//W3C//DTD SVG 20010904//EN"
 "http://www.w3.org/TR/2001/REC-SVG-20010904/DTD/svg10.dtd">
<svg version="1.0" xmlns="http://www.w3.org/2000/svg"
 width="1279.000000pt" height="504.000000pt" viewBox="0 0 1279.000000 504.000000"
 preserveAspectRatio="xMidYMid meet">

<g transform="translate(0.000000,504.000000) scale(0.100000,-0.100000)"
fill="#000000" stroke="none">
<path d="M6127 4475 c-540 -74 -1024 -370 -1349 -826 -66 -92 -189 -323 -227
-427 -18 -48 -18 -52 -3 -48 299 92 777 102 1162 25 60 -12 107 -25 105 -29
-3 -4 -26 -11 -52 -15 -27 -3 -102 -20 -167 -36 -367 -92 -721 -244 -1001
-430 -190 -127 -178 -108 -170 -248 17 -293 73 -520 192 -773 42 -90 47 -96
66 -86 17 9 23 7 35 -11 22 -33 29 -25 25 27 -4 41 -1 53 26 89 17 23 54 61
83 84 54 42 68 59 49 59 -23 0 -9 17 28 33 58 26 161 145 106 123 -8 -3 -22
-9 -30 -12 -11 -4 -15 -1 -13 12 4 48 -3 62 -33 73 -23 8 -30 15 -25 27 3 8 6
17 6 19 0 2 16 12 35 21 26 12 38 26 47 55 7 26 16 38 27 37 10 -2 23 11 33
31 9 19 21 38 26 43 12 12 74 -16 117 -53 42 -37 44 -32 9 26 -21 37 -23 47
-14 66 10 17 9 23 -1 30 -8 5 -17 9 -21 9 -15 0 -8 21 10 27 24 9 38 25 46 51
6 17 15 22 40 22 28 0 34 5 45 38 16 45 128 157 224 226 368 262 930 331 1382
170 38 -14 150 -60 250 -103 359 -156 452 -176 801 -175 138 1 276 4 307 8
l57 7 0 42 c0 23 -4 48 -8 55 -5 7 -36 18 -70 25 -84 17 -88 27 -10 27 35 0
67 2 69 5 3 2 3 21 1 40 -4 34 -5 35 -23 20 -16 -15 -26 -16 -91 -4 -58 10
-68 14 -48 20 14 4 40 7 57 8 18 1 46 9 62 19 l29 17 -23 90 c-13 50 -34 122
-48 160 -23 68 -25 70 -68 83 -174 53 -279 91 -374 137 -118 58 -181 109 -155
125 20 12 -29 31 -97 38 -29 2 -58 11 -64 18 -7 8 -31 14 -59 14 -30 0 -52 6
-60 15 -8 9 -29 15 -56 15 -57 0 -65 16 -11 23 93 12 133 8 160 -13 15 -12 35
-20 44 -18 17 2 69 -13 105 -33 10 -5 33 -9 53 -9 36 0 67 -31 44 -45 -15 -10
19 -45 43 -45 20 0 23 21 7 51 -7 15 -7 24 1 34 9 11 6 14 -12 17 -16 2 -24
12 -29 36 -4 18 -8 34 -10 35 -25 17 -282 132 -337 151 -275 98 -555 118 -759
55 -36 -11 -67 -18 -69 -16 -3 3 12 15 33 28 21 13 41 27 45 33 4 6 22 9 42 8
19 -1 38 2 41 8 12 20 -3 22 -55 9 -42 -11 -55 -11 -72 0 -15 9 -23 10 -31 2
-15 -15 -50 -14 -65 1 -19 19 -14 54 11 72 21 16 14 17 -123 12 -153 -5 -308
-25 -450 -57 -166 -38 -278 -79 -560 -204 -96 -42 -217 -93 -269 -112 -105
-38 -278 -86 -292 -81 -6 2 34 21 88 42 126 49 306 139 413 206 47 29 297 171
555 315 614 342 655 365 655 371 0 9 -302 1 -393 -11z"/>
<path d="M6985 3989 c-16 -10 -44 -19 -61 -19 -19 0 -34 -6 -38 -15 -6 -17 24
-21 52 -6 19 11 261 31 366 31 42 0 65 4 61 10 -9 14 -178 13 -192 -1 -9 -9
-20 -9 -43 1 -23 10 -34 10 -43 1 -16 -16 -57 -14 -57 4 0 19 -8 18 -45 -6z"/>
<path d="M6730 3935 c0 -11 11 -15 40 -15 22 0 40 4 40 9 0 5 8 12 18 14 14 4
13 5 -3 6 -12 0 -26 -4 -33 -11 -9 -9 -15 -9 -24 0 -17 17 -38 15 -38 -3z"/>
<path d="M1492 3375 c-97 -18 -104 -21 -100 -47 3 -25 23 -28 86 -15 l32 7 -6
-343 c-4 -188 -9 -344 -11 -347 -2 -2 -25 -7 -51 -10 -42 -4 -47 -8 -47 -30
l0 -25 135 4 c74 2 141 8 148 13 8 7 12 43 12 113 0 56 3 123 6 149 l7 46 43
0 44 0 0 -48 c0 -62 25 -159 52 -198 62 -90 196 -110 283 -42 54 42 92 170 60
201 -21 22 -45 10 -45 -22 0 -77 -48 -155 -88 -144 -35 9 -55 68 -59 178 l-4
100 53 30 c118 67 154 227 76 338 -27 38 -106 76 -195 93 -93 17 -331 17 -431
-1z m458 -62 c101 -28 150 -83 150 -170 0 -122 -112 -193 -307 -193 l-93 0 0
103 c0 57 3 146 7 196 l6 93 91 -7 c50 -3 116 -13 146 -22z"/>
<path d="M2399 3361 c-39 -40 -40 -89 -1 -132 48 -54 134 -38 162 30 40 98
-85 177 -161 102z"/>
<path d="M3353 3353 c-10 -24 18 -43 63 -43 l44 0 0 -340 0 -340 -33 0 c-38 0
-72 -21 -65 -40 3 -11 45 -14 201 -14 197 -1 197 -1 197 21 0 18 -7 23 -37 28
-69 12 -65 1 -61 168 3 140 5 155 28 196 39 69 90 105 149 105 102 0 141 -61
140 -219 0 -55 -5 -129 -12 -165 l-12 -64 -44 -8 c-25 -4 -49 -12 -55 -18 -15
-15 7 -46 30 -43 11 2 60 3 111 3 67 1 94 5 103 15 19 23 -5 45 -47 45 -35 0
-35 0 -29 38 14 96 18 272 7 319 -26 100 -90 153 -189 153 -73 0 -132 -25
-159 -67 -18 -27 -18 -25 -23 126 l-5 154 -149 2 c-115 1 -149 -2 -153 -12z"/>
<path d="M3256 3183 c-3 -10 -8 -39 -12 -66 l-6 -47 -39 34 c-100 91 -287 80
-380 -21 -85 -91 -111 -265 -56 -382 94 -201 391 -216 503 -26 30 52 29 89 -2
93 -17 2 -24 -5 -33 -29 -51 -145 -202 -172 -267 -48 -43 84 -37 230 14 322
64 118 187 100 232 -33 13 -39 24 -56 38 -58 11 -2 22 3 25 11 11 29 39 237
33 252 -8 21 -43 19 -50 -2z"/>
<path d="M2267 3106 c-9 -24 12 -40 60 -45 l48 -6 3 -212 2 -213 -27 -5 c-16
-4 -38 -8 -50 -11 -16 -3 -23 -12 -23 -27 l0 -22 197 1 c172 0 198 3 201 16 4
20 -12 30 -58 38 l-35 5 -5 245 c-3 135 -7 246 -8 246 -1 1 -69 2 -151 2 -111
0 -151 -3 -154 -12z"/>
<path d="M2035 2469 c-49 -5 -110 -14 -135 -22 -38 -11 -45 -17 -45 -37 0 -27
17 -30 81 -15 l32 7 -5 -338 c-2 -187 -6 -344 -8 -351 -2 -6 -26 -13 -52 -15
-43 -3 -48 -5 -48 -27 l0 -25 200 0 200 -1 0 25 c0 23 -4 25 -52 28 l-53 3 0
91 0 91 41 -6 c110 -15 257 39 329 120 72 82 89 207 41 301 -28 54 -102 117
-168 142 -47 18 -208 42 -253 38 -8 0 -55 -4 -105 -9z m315 -79 c124 -36 189
-122 177 -234 -9 -86 -51 -147 -129 -187 -50 -25 -164 -43 -207 -32 l-34 9 2
179 c1 99 4 206 8 238 l6 58 56 -6 c31 -4 85 -15 121 -25z"/>
<path d="M2643 2443 c-10 -25 6 -42 44 -45 l38 -3 3 -342 2 -343 -40 -6 c-49
-8 -70 -29 -49 -49 11 -12 30 -13 102 -5 52 5 120 5 165 0 61 -7 80 -6 91 5
21 20 7 42 -33 49 l-36 7 -2 371 -3 372 -139 1 c-104 1 -139 -2 -143 -12z"/>
<path d="M6090 2244 c-235 -25 -417 -74 -608 -165 -133 -63 -229 -126 -321
-214 -167 -159 -270 -372 -271 -558 l0 -68 108 -108 c141 -141 326 -282 387
-294 96 -18 261 38 329 113 55 61 98 154 104 227 4 56 1 70 -26 126 -17 34
-51 82 -76 105 -94 91 -156 220 -156 325 0 106 82 222 194 273 104 47 177 59
381 58 339 0 538 -50 720 -179 165 -117 257 -273 285 -482 24 -174 -29 -407
-150 -660 l-58 -121 52 15 c102 30 265 101 374 163 391 222 684 553 861 972
23 53 41 100 41 104 0 9 -193 -3 -335 -21 -60 -7 -111 -12 -112 -11 -1 1 42
21 95 44 53 23 113 56 132 72 l35 29 -75 -19 c-235 -59 -453 -41 -584 49 -110
76 -302 152 -479 191 -221 49 -577 63 -847 34z"/>
<path d="M4098 2239 c-20 -13 -3 -43 29 -53 29 -8 32 -12 26 -35 -22 -93 -94
-355 -98 -359 -6 -6 -5 -8 -43 55 -40 66 -78 157 -97 230 -23 87 -22 89 38 99
46 8 52 12 52 34 l0 25 -130 -4 c-71 -1 -133 -5 -137 -8 -14 -8 -8 -41 8 -47
9 -3 33 -6 54 -6 l38 0 12 -67 c16 -93 64 -211 128 -312 61 -97 61 -92 1 -220
-48 -104 -81 -147 -124 -168 -29 -14 -38 -14 -66 -3 l-32 14 43 10 c84 21 112
114 51 168 -77 69 -171 8 -171 -110 0 -98 73 -157 195 -157 59 0 79 5 124 30
29 16 71 50 93 74 89 102 133 213 224 566 46 181 47 184 76 190 32 7 47 30 31
46 -11 11 -308 18 -325 8z"/>
<path d="M3272 2203 c-59 -21 -147 -103 -167 -157 -21 -55 -17 -101 9 -101 20
0 32 16 40 56 9 41 48 91 89 112 34 17 43 18 80 7 23 -7 56 -28 74 -47 32 -34
62 -107 49 -120 -3 -4 -37 -10 -74 -14 -140 -15 -240 -68 -274 -146 -26 -60
-18 -102 28 -142 69 -61 192 -39 289 50 l46 42 -3 -54 -3 -54 35 2 c151 6 251
18 260 28 20 24 0 44 -46 47 l-45 3 -5 115 c-4 107 -18 187 -43 251 -16 42
-72 100 -116 120 -50 23 -162 24 -223 2z m186 -339 c4 -30 -72 -121 -132 -158
-58 -37 -132 -42 -165 -12 -65 59 38 159 191 185 78 13 102 10 106 -15z"/>
<path d="M5720 1735 c0 -12 14 -15 65 -15 l65 0 76 -100 c59 -76 83 -100 101
-100 22 0 23 2 23 95 l0 95 -40 0 c-29 0 -40 -4 -40 -15 0 -8 7 -15 15 -15 10
0 15 -10 15 -30 0 -16 -2 -30 -4 -30 -3 0 -26 29 -52 65 l-48 65 -88 0 c-72 0
-88 -3 -88 -15z"/>
<path d="M5970 1735 c0 -12 16 -15 80 -15 64 0 80 3 80 15 0 12 -16 15 -80 15
-64 0 -80 -3 -80 -15z"/>
<path d="M6150 1735 c0 -13 22 -15 135 -15 l135 0 0 -35 c0 -31 3 -35 25 -35
23 0 25 3 25 50 l0 50 -160 0 c-136 0 -160 -2 -160 -15z"/>
<path d="M6490 1685 c0 -58 2 -65 20 -65 17 0 20 7 20 50 l0 50 150 0 150 0 0
-50 c0 -42 3 -50 19 -50 14 0 20 10 25 46 12 92 31 84 -189 84 l-195 0 0 -65z"/>
<path d="M5710 1695 c0 -8 7 -15 15 -15 12 0 15 -13 15 -60 0 -33 -4 -60 -10
-60 -5 0 -10 -9 -10 -20 0 -16 7 -20 35 -20 l35 0 0 95 0 95 -40 0 c-29 0 -40
-4 -40 -15z"/>
<path d="M5800 1615 l0 -95 40 0 c30 0 40 4 40 16 0 9 -9 18 -20 21 -13 3 -20
14 -20 29 0 13 3 24 8 24 4 0 27 -30 51 -65 l44 -65 79 0 78 0 0 95 c0 76 3
97 15 101 30 12 16 34 -20 34 l-35 0 0 -100 0 -100 -32 0 c-30 1 -40 10 -108
100 -55 74 -81 99 -97 100 -22 0 -23 -3 -23 -95z"/>
<path d="M6140 1696 c0 -7 9 -16 20 -19 17 -4 20 -14 20 -61 0 -43 -3 -56 -15
-56 -8 0 -15 -9 -15 -20 0 -17 7 -20 40 -20 l40 0 0 95 0 95 -45 0 c-32 0 -45
-4 -45 -14z"/>
<path d="M6242 1618 l3 -93 55 0 c42 0 55 3 55 15 0 9 -11 16 -27 18 -47 6
-31 22 21 22 35 0 51 4 55 16 12 30 6 34 -49 34 -52 0 -55 1 -55 25 0 21 5 25
30 25 20 0 30 -5 30 -15 0 -9 9 -15 25 -15 21 0 25 5 25 30 l0 30 -85 0 -86 0
3 -92z"/>
<path d="M6550 1665 c0 -38 3 -45 20 -45 16 0 20 7 20 30 0 20 5 30 15 30 12
0 15 -13 15 -60 0 -57 -1 -60 -25 -60 -18 0 -25 -5 -25 -20 0 -17 7 -20 50
-20 l50 0 0 95 0 95 -60 0 -60 0 0 -45z"/>
<path d="M6682 1618 l3 -93 58 -3 c52 -3 57 -1 57 18 0 16 -6 20 -30 20 l-30
0 0 60 c0 47 3 60 15 60 10 0 15 -10 15 -30 0 -25 4 -30 25 -30 23 0 25 4 25
45 l0 45 -70 0 -71 0 3 -92z"/>
<path d="M5710 1495 c0 -12 15 -15 79 -15 61 0 80 3 85 15 4 13 -8 15 -79 15
-69 0 -85 -3 -85 -15z"/>
<path d="M6146 1495 c-5 -13 10 -15 99 -15 87 0 105 3 105 15 0 12 -18 15 -99
15 -79 0 -100 -3 -105 -15z"/>
<path d="M6560 1495 c0 -12 19 -15 114 -15 92 0 115 3 120 15 5 13 -12 15
-114 15 -100 0 -120 -3 -120 -15z"/>
</g>
</svg>
